<svg width="32" height="32" viewBox="0 0 32 32" fill="none" xmlns="http://www.w3.org/2000/svg">
<g id="Frame 8">
<path id="Rectangle 773" d="M3.66669 16C3.66669 13.4892 3.66765 11.6731 3.79658 10.2505C3.92427 8.84163 4.17113 7.91726 4.60451 7.16663C5.21889 6.10249 6.10255 5.21883 7.16669 4.60445C7.91732 4.17107 8.84169 3.92421 10.2505 3.79652C11.6731 3.66758 13.4893 3.66663 16 3.66663C18.5107 3.66663 20.3269 3.66758 21.7495 3.79652C23.1583 3.92421 24.0827 4.17107 24.8334 4.60445C25.8975 5.21883 26.7812 6.10249 27.3955 7.16663C27.8289 7.91726 28.0758 8.84163 28.2035 10.2505C28.3324 11.6731 28.3334 13.4892 28.3334 16C28.3334 18.5107 28.3324 20.3268 28.2035 21.7494C28.0758 23.1583 27.8289 24.0827 27.3955 24.8333C26.7812 25.8974 25.8975 26.7811 24.8334 27.3955C24.0827 27.8288 23.1583 28.0757 21.7495 28.2034C20.3269 28.3323 18.5107 28.3333 16 28.3333C13.4893 28.3333 11.6731 28.3323 10.2505 28.2034C8.84169 28.0757 7.91732 27.8288 7.16669 27.3955C6.10255 26.7811 5.21889 25.8974 4.60451 24.8333C4.17113 24.0827 3.92427 23.1583 3.79658 21.7494C3.66765 20.3268 3.66669 18.5107 3.66669 16Z" stroke="white" stroke-width="2"/>
<path id="Rectangle 774" d="M18.3333 11.3333C18.3333 10.0447 19.378 9 20.6666 9C21.9553 9 23 10.0447 23 11.3333V22C23 23.2887 21.9553 24.3333 20.6666 24.3333C19.378 24.3333 18.3333 23.2887 18.3333 22V11.3333Z" stroke="white" stroke-width="2"/>
<path id="Rectangle 775" d="M9 18C9 16.7113 10.0447 15.6666 11.3333 15.6666C12.622 15.6666 13.6667 16.7113 13.6667 18V22C13.6667 23.2886 12.622 24.3333 11.3333 24.3333C10.0447 24.3333 9 23.2886 9 22V18Z" stroke="white" stroke-width="2"/>
</g>
</svg>
