<svg width="32" height="32" viewBox="0 0 32 32" fill="none" xmlns="http://www.w3.org/2000/svg">
<g id="Settings">
<g id="Group 11">
<path id="Star 1" d="M14.022 4.38946C14.9505 2.9549 17.0495 2.95491 17.9779 4.38947L18.8216 5.69298C19.3531 6.51411 20.3366 6.92149 21.293 6.71666L22.8113 6.39149C24.4822 6.03364 25.9664 7.51784 25.6085 9.18876L25.2834 10.707C25.0785 11.6635 25.4859 12.647 26.307 13.1784L27.6106 14.0221C29.0451 14.9506 29.0451 17.0495 27.6106 17.978L26.307 18.8217C25.4859 19.3531 25.0785 20.3366 25.2834 21.293L25.6085 22.8113C25.9664 24.4822 24.4822 25.9664 22.8113 25.6086L21.293 25.2834C20.3366 25.0786 19.3531 25.486 18.8216 26.3071L17.9779 27.6106C17.0495 29.0452 14.9505 29.0452 14.022 27.6106L13.1784 26.3071C12.6469 25.486 11.6634 25.0786 10.707 25.2834L9.18869 25.6086C7.51777 25.9664 6.03358 24.4822 6.39143 22.8113L6.7166 21.293C6.92143 20.3366 6.51405 19.3531 5.69292 18.8217L4.3894 17.978C2.95484 17.0495 2.95484 14.9506 4.3894 14.0221L5.69292 13.1784C6.51405 12.647 6.92143 11.6635 6.7166 10.707L6.39143 9.18875C6.03358 7.51784 7.51778 6.03364 9.1887 6.39149L10.707 6.71666C11.6634 6.92149 12.6469 6.51411 13.1784 5.69298L14.022 4.38946Z" stroke="white" stroke-width="2"/>
<circle id="Ellipse 1" cx="16" cy="16" r="4" stroke="white" stroke-width="2"/>
</g>
</g>
</svg>
