<svg width="34" height="34" viewBox="0 0 34 34" fill="none" xmlns="http://www.w3.org/2000/svg">
<path id="Vector 96 (Stroke)" fill-rule="evenodd" clip-rule="evenodd" d="M26.0188 5.20652C25.9632 3.84084 24.489 3.06068 23.387 3.8137L19.8155 6.25411L26.2529 10.953L26.0188 5.20652ZM29.756 13.5101L29.4117 5.05838C29.2447 0.96136 24.8223 -1.37912 21.5162 0.879932L16.8035 4.10015L12.1551 0.923843C8.82834 -1.34936 4.38222 1.03532 4.25761 5.15965L3.99921 13.7118L1.68333 15.4629C-0.0823922 16.7981 -0.18664 19.4876 1.47007 20.9649L14.6065 32.679C15.8634 33.7998 17.7186 33.8165 18.9941 32.7186L32.6008 21.006C34.3189 19.527 34.2126 16.7632 32.3865 15.4302L29.756 13.5101ZM7.47618 11.0826L13.8283 6.27928L10.2843 3.85761C9.1754 3.09988 7.69336 3.89477 7.65182 5.26955L7.47618 11.0826ZM16.821 8.36963L3.68643 18.3016L16.8229 30.0157L30.4295 18.3031L16.821 8.36963Z" fill="#000000"/>
</svg>
