<svg width="32" height="32" viewBox="0 0 32 32" fill="none" xmlns="http://www.w3.org/2000/svg">
<g id="Frame 6">
<g id="Exclude">
<mask id="path-1-inside-1_801_251" fill="white">
<path fill-rule="evenodd" clip-rule="evenodd" d="M31.4778 18.8718C31.4778 15.6997 28.9063 13.1282 25.7342 13.1282L24.6899 13.1282C24.6899 9.95613 22.1184 7.38464 18.9463 7.38464L6.41487 7.38464C3.24277 7.38464 0.67128 9.95613 0.67128 13.1282C0.67128 16.3003 3.24278 18.8718 6.41487 18.8718L7.45914 18.8718C7.45914 22.0439 10.0306 24.6154 13.2027 24.6154L25.7342 24.6154C28.9063 24.6154 31.4778 22.0439 31.4778 18.8718ZM7.45914 18.8718L18.9463 18.8718C22.1184 18.8718 24.6899 16.3003 24.6899 13.1282L13.2027 13.1282C10.0306 13.1282 7.45914 15.6997 7.45914 18.8718Z"/>
</mask>
<path fill-rule="evenodd" clip-rule="evenodd" d="M31.4778 18.8718C31.4778 15.6997 28.9063 13.1282 25.7342 13.1282L24.6899 13.1282C24.6899 9.95613 22.1184 7.38464 18.9463 7.38464L6.41487 7.38464C3.24277 7.38464 0.67128 9.95613 0.67128 13.1282C0.67128 16.3003 3.24278 18.8718 6.41487 18.8718L7.45914 18.8718C7.45914 22.0439 10.0306 24.6154 13.2027 24.6154L25.7342 24.6154C28.9063 24.6154 31.4778 22.0439 31.4778 18.8718ZM7.45914 18.8718L18.9463 18.8718C22.1184 18.8718 24.6899 16.3003 24.6899 13.1282L13.2027 13.1282C10.0306 13.1282 7.45914 15.6997 7.45914 18.8718Z" fill="white"/>
<path d="M25.7342 13.1282L25.7342 11.2137L25.7342 11.2137L25.7342 13.1282ZM18.9463 7.38464L18.9463 9.29917L18.9463 7.38464ZM6.41487 7.38464L6.41487 5.47011L6.41487 7.38464ZM6.41487 18.8718L6.41487 20.7863L6.41488 20.7863L6.41487 18.8718ZM18.9463 18.8718L18.9463 20.7863L18.9463 20.7863L18.9463 18.8718ZM13.2027 13.1282L13.2027 11.2137L13.2027 11.2137L13.2027 13.1282ZM25.7342 15.0428C27.8489 15.0428 29.5633 16.7571 29.5633 18.8718L33.3923 18.8718C33.3923 14.6424 29.9636 11.2137 25.7342 11.2137L25.7342 15.0428ZM24.6899 15.0428L25.7342 15.0428L25.7342 11.2137L24.6899 11.2137L24.6899 15.0428ZM18.9463 9.29917C21.0611 9.29917 22.7754 11.0135 22.7754 13.1282L26.6045 13.1282C26.6045 8.89877 23.1758 5.47011 18.9463 5.47011L18.9463 9.29917ZM6.41487 9.29917L18.9463 9.29917L18.9463 5.47011L6.41487 5.47011L6.41487 9.29917ZM2.58581 13.1282C2.58581 11.0135 4.30014 9.29917 6.41487 9.29917L6.41487 5.47011C2.18541 5.47011 -1.24325 8.89877 -1.24325 13.1282L2.58581 13.1282ZM6.41487 16.9573C4.30014 16.9573 2.58581 15.243 2.58581 13.1282L-1.24325 13.1282C-1.24325 17.3577 2.18542 20.7863 6.41487 20.7863L6.41487 16.9573ZM7.45914 16.9573L6.41487 16.9573L6.41488 20.7863L7.45915 20.7863L7.45914 16.9573ZM13.2027 22.7009C11.088 22.7009 9.37367 20.9865 9.37367 18.8718L5.54461 18.8718C5.54461 23.1013 8.97328 26.5299 13.2027 26.5299L13.2027 22.7009ZM25.7342 22.7009L13.2027 22.7009L13.2027 26.5299L25.7342 26.5299L25.7342 22.7009ZM29.5633 18.8718C29.5633 20.9865 27.8489 22.7009 25.7342 22.7009L25.7342 26.5299C29.9637 26.5299 33.3923 23.1013 33.3923 18.8718L29.5633 18.8718ZM18.9463 16.9573L7.45914 16.9573L7.45914 20.7863L18.9463 20.7863L18.9463 16.9573ZM22.7754 13.1282C22.7754 15.243 21.0611 16.9573 18.9463 16.9573L18.9463 20.7863C23.1758 20.7863 26.6045 17.3577 26.6045 13.1282L22.7754 13.1282ZM13.2027 15.0428L24.6899 15.0428L24.6899 11.2137L13.2027 11.2137L13.2027 15.0428ZM9.37367 18.8718C9.37367 16.7571 11.088 15.0428 13.2027 15.0428L13.2027 11.2137C8.97327 11.2137 5.54461 14.6424 5.54461 18.8718L9.37367 18.8718Z" fill="white" mask="url(#path-1-inside-1_801_251)"/>
</g>
</g>
</svg>
